# xmcd
#
# Track frame offsets:
#	150
#	11090
#	28756
#	44008
#	57938
#	71974
#	90232
#	112069
#	133149
#	150550
#	165890
#	180609
#	194134
#	205308
#	219212
#
# Disc length: 3177 seconds
#
# Revision: 0
# Processed by: cddbd v1.5.1PL0 Copyright (c) Steve Scherf et al.
# Submitted via: dBpowerAMP V4.0
#
DISCID=d80c670f
DTITLE=Various Artist - 30 ans - CD1
DYEAR=1998
DGENRE=Native American
TTITLE0=Oh Peter go ring them bells - Les messagers
TTITLE1=Just a closer - 
TTITLE2=Swing low - 
TTITLE3=Down by the riverside - 
TTITLE4=God save music - 
TTITLE5=Massa in the cold ground - 
TTITLE6=What then (Instrumental) - 
TTITLE7=Kumbaya my Lord - 
TTITLE8=My old Kentucky home - 
TTITLE9=My Lord what a morning - 
TTITLE10=Michael rows the boat - 
TTITLE11=Invisible hands - 
TTITLE12=Thank god I'm reborn - 
TTITLE13=Ezechiel - 
TTITLE14=He's got the whole world - 
EXTD=
EXTT0=
EXTT1=
EXTT2=
EXTT3=
EXTT4=
EXTT5=
EXTT6=
EXTT7=
EXTT8=
EXTT9=
EXTT10=
EXTT11=
EXTT12=
EXTT13=
EXTT14=
PLAYORDER=
